<svg width="25" height="25" viewBox="0 0 25 25" fill="none" xmlns="http://www.w3.org/2000/svg">
    <g clip-path="url(#clip0_8_19)">
        <path d="M6.28718 3.5455C6.29184 4.14435 6.06069 4.72099 5.64369 5.15082C5.2267 5.58065 4.65733 5.82916 4.05861 5.84265C3.46114 5.82073 2.89492 5.57011 2.47697 5.14259C2.05902 4.71507 1.82129 4.14332 1.8129 3.5455C1.83887 2.96305 2.08534 2.41227 2.50236 2.00481C2.91937 1.59734 3.47571 1.36369 4.05861 1.35122C4.6398 1.36393 5.19419 1.59816 5.60843 2.00602C6.02267 2.41389 6.26547 2.96458 6.28718 3.5455ZM2.0529 9.92265C2.0529 8.60265 2.8929 8.80836 4.05861 8.80836C5.22433 8.80836 6.04718 8.60265 6.04718 9.92265V22.7798C6.04718 24.1169 5.20718 23.8426 4.05861 23.8426C2.91004 23.8426 2.0529 24.1169 2.0529 22.7798V9.92265Z" stroke="#8147E5" stroke-width="1.71429" stroke-linecap="round" stroke-linejoin="round"/>
        <path d="M9.51004 9.92265C9.51004 9.1855 9.78433 8.91122 10.2129 8.8255C10.6415 8.73979 12.1158 8.8255 12.63 8.8255C13.1443 8.8255 13.35 9.6655 13.3329 10.2998C13.7728 9.70938 14.3569 9.24173 15.0292 8.94158C15.7015 8.64143 16.4396 8.51883 17.1729 8.5855C17.8929 8.54148 18.6142 8.64944 19.2898 8.90235C19.9654 9.15527 20.5802 9.54749 21.0943 10.0535C21.6085 10.5596 22.0104 11.1681 22.274 11.8396C22.5376 12.5111 22.6569 13.2306 22.6243 13.9512V22.7284C22.6243 24.0655 21.8015 23.7912 20.6358 23.7912C19.47 23.7912 18.6472 24.0655 18.6472 22.7284V15.8712C18.6773 15.5183 18.6312 15.163 18.5118 14.8295C18.3925 14.496 18.2028 14.1921 17.9556 13.9384C17.7084 13.6848 17.4096 13.4872 17.0793 13.3593C16.749 13.2313 16.395 13.176 16.0415 13.1969C15.6895 13.188 15.3397 13.2539 15.0152 13.3903C14.6906 13.5267 14.3987 13.7306 14.1589 13.9882C13.919 14.2459 13.7366 14.5516 13.6238 14.8851C13.5109 15.2186 13.4702 15.5722 13.5043 15.9226V22.7798C13.5043 24.1169 12.6643 23.8426 11.4986 23.8426C10.3329 23.8426 9.51004 24.1169 9.51004 22.7798V9.92265Z" stroke="#8147E5" stroke-width="1.71429" stroke-linecap="round" stroke-linejoin="round"/>
    </g>
    <defs>
        <clipPath id="clip0_8_19">
            <rect width="24" height="24" fill="white" transform="translate(0.218597 0.614075)"/>
        </clipPath>
    </defs>
</svg>
